<?xml version="1.0" encoding="UTF-8" standalone="no"?>
<svg
   xmlns:dc="http://purl.org/dc/elements/1.1/"
   xmlns:cc="http://creativecommons.org/ns#"
   xmlns:rdf="http://www.w3.org/1999/02/22-rdf-syntax-ns#"
   xmlns:svg="http://www.w3.org/2000/svg"
   xmlns="http://www.w3.org/2000/svg"
   xmlns:sodipodi="http://sodipodi.sourceforge.net/DTD/sodipodi-0.dtd"
   xmlns:inkscape="http://www.inkscape.org/namespaces/inkscape"
   version="1.1"
   id="svg2581"
   width="320.164"
   height="317.42999"
   viewBox="0 0 320.164 317.42999"
   sodipodi:docname="cube_vectorized.svg"
   inkscape:version="1.0.2-2 (e86c870879, 2021-01-15)">
  <metadata
     id="metadata2587">
    <rdf:RDF>
      <cc:Work
         rdf:about="">
        <dc:format>image/svg+xml</dc:format>
        <dc:type
           rdf:resource="http://purl.org/dc/dcmitype/StillImage" />
        <dc:title></dc:title>
      </cc:Work>
    </rdf:RDF>
  </metadata>
  <defs
     id="defs2585" />
  <sodipodi:namedview
     pagecolor="#ffffff"
     bordercolor="#666666"
     borderopacity="1"
     objecttolerance="10"
     gridtolerance="10"
     guidetolerance="10"
     inkscape:pageopacity="0"
     inkscape:pageshadow="2"
     inkscape:window-width="1920"
     inkscape:window-height="1017"
     id="namedview2583"
     showgrid="true"
     inkscape:zoom="1.4142136"
     inkscape:cx="193.41116"
     inkscape:cy="122.96119"
     inkscape:window-x="1912"
     inkscape:window-y="-8"
     inkscape:window-maximized="1"
     inkscape:current-layer="g2589"
     inkscape:document-rotation="0">
    <inkscape:grid
       type="xygrid"
       id="grid2603"
       originx="143.92402"
       originy="142.8435" />
  </sodipodi:namedview>
  <g
     inkscape:groupmode="layer"
     inkscape:label="Image"
     id="g2589"
     transform="translate(143.92402,142.8435)">
    <path
       style="fill:#000000;stroke-width:3.33322"
       d="M -143.92402,129.15884 V 38.14737 l 76.802069,-45.57072 0.044,-88.100465 81.657157,-47.319685 81.66568,47.319685 V -7.42335 l 79.991094,42.27408 0.004,92.4533 -82.123784,47.28247 -79.53251,-42.26554 -75.86749,41.89722 z M 9.615976,125.5865 V 39.22883 l -70.9,-39.39372 -72.459996,41.88901 0.004,81.85847 72.456346,40.51262 z m -103.46,-23.12454 V 62.3465 l 32.56,-18.23155 32.56,18.23155 v 41.31221 l -32.56,17.23659 z M 166.05598,122.7611 V 39.53362 L 94.115976,0.97407 l -74.56,38.25476 v 86.35767 l 74.56,38.34502 z M 61.555976,102.56201 V 63.09303 l 32.56,-19.46948 32.560004,19.70091 v 37.35557 l -32.560004,20.05636 z m 24.62101,-109.98536 0.068,-84.468194 -71.66152,-40.444866 -71.84848,40.444866 V -7.4235 l 71.85099,38.16473 z m -104.14701,-20.78708 -0.004,-39.22307 32.56339,-18.23 32.54661,18.231898 v 39.221172 l -32.55251,18.2287 z"
       id="path2601"
       sodipodi:nodetypes="ccccccccccccccccccccccccccccccccccccccccccccccccccccccc"
       inkscape:export-xdpi="75.599998"
       inkscape:export-ydpi="75.599998" />
  </g>
</svg>
