<?xml version="1.0" standalone="yes"?>
<svg width="103" height="100">
<path style="fill:#1e1e1e; stroke:none;" d="M49 4.75386C43.3021 6.1853 36.9731 10.9033 32.0193 14.0147C29.9401 15.3205 28.0058 16.6201 27.3179 19.1042C25.3707 26.136 29.8442 36.2752 25.9722 42.6713C21.5728 49.9386 9.30763 49.9478 5.02778 57.213C3.14147 60.415 4 65.4359 4 69C4 73.0968 2.95282 78.9587 4.60339 82.7901C5.59747 85.0976 7.95062 86.349 10.0046 87.5748C14.8056 90.44 22.2496 96.5509 28 96.5509C36.585 96.5509 43.4941 84.6018 52 85.5841C60.2159 86.5329 67.3096 98.1641 76 96.196C81.4165 94.9693 87.2551 90.4038 91.9954 87.5748C94.0494 86.349 96.4025 85.0976 97.3966 82.7901C99.1516 78.7164 98 72.3621 98 68C98 64.6064 98.9124 59.5204 96.9722 56.5293C92.483 49.6085 80.4481 49.5711 76.0278 42.6103C71.776 35.9149 77.5051 25.3689 74.3966 18.213C72.403 13.6236 64.1235 10.7784 60 8.4213C56.7228 6.54794 52.9706 3.75635 49 4.75386M50 6.50154C53.9505 6.03542 57.7486 8.99489 61 10.8495C64.4632 12.825 69.8266 14.7897 71.9722 18.3287C74.5964 22.6571 73.0101 31.0949 73 36C72.9956 38.1284 73.2901 40.6728 72.3966 42.6713C71.3834 44.9376 69.0282 46.0914 66.9954 47.2801C62.6421 49.8256 57.0555 54.3944 52 55.1381C47.7684 55.7607 43.4631 52.2495 40 50.2809C36.8885 48.512 32.0133 46.737 30.0278 43.6103C28.2238 40.7695 29 36.2045 29 33C29 28.8184 27.9948 23.041 29.6034 19.1049C31.6365 14.1304 44.7933 7.11588 50 6.50154M50 20.9738C36.7029 22.7044 39.1818 43.279 52 40.9606C63.7582 38.834 62.0634 19.4037 50 20.9738M28 45.8117C31.4853 45.879 35.0852 48.7504 38 50.4213C41.4471 52.3973 47.6353 54.5575 49.3966 58.3789C51.6136 63.1891 50.0354 71.7685 49.9992 76.9992C49.9848 79.0815 50.22 81.5577 48.9722 83.3657C46.7315 86.6127 41.3319 88.5113 38 90.4213C35.0894 92.0898 31.4836 94.9893 28 95.0833C24.5344 95.1769 20.877 92.2279 18 90.5787C14.5529 88.6027 8.36466 86.4425 6.60339 82.6211C4.38637 77.8109 5.9646 69.2315 6.00077 64.0008C6.01531 61.898 5.79418 59.4455 7.02778 57.6096C9.26255 54.2836 14.6137 52.21 18 50.2809C20.9216 48.6164 24.4826 45.7439 28 45.8117M74 45.6682C77.5254 45.5585 81.0807 48.3233 84 50C87.4293 51.9696 92.7996 53.9028 94.9722 57.3789C97.7371 61.8025 96.0104 70.9404 96 76C95.9957 78.0916 96.3114 80.6568 95.3966 82.6103C93.6533 86.3331 87.3767 88.4857 84 90.4213C81.1301 92.0665 77.461 95.0463 74 94.9915C70.8345 94.9414 67.6413 92.2297 65 90.7199C61.2874 88.5976 55.3256 86.4614 53.0278 82.6713C51.2566 79.7499 52 75.2651 52 72C52 67.9748 50.9285 62.0753 52.6034 58.3287C53.6166 56.0625 55.9718 54.9085 58.0046 53.7199C62.4057 51.1464 68.7701 45.831 74 45.6682M27 60.8735C13.9271 62.5908 16.0579 82.3698 29 80.4769C40.9662 78.7266 38.9056 59.3094 27 60.8735M73 60.8318C60.6631 63.3103 63.7559 83.0946 76 80.2963C88.1585 77.5176 85.3041 58.3599 73 60.8318z"/>
</svg>
